<svg width="47" height="48" viewBox="0 0 47 48" fill="none" xmlns="http://www.w3.org/2000/svg">
<path d="M44.5434 14.3323C43.6718 12.2962 42.5184 10.3988 41.1181 8.69819C39.0484 6.10919 36.4655 3.99737 33.5393 2.50172C30.6131 1.00609 27.41 0.16054 24.1409 0.0207192C20.8719 -0.119101 17.6109 0.449979 14.5725 1.69053C11.5343 2.93107 8.78758 4.81494 6.51327 7.21815C4.23895 9.62134 2.48856 12.4894 1.37733 15.6336C0.266096 18.7776 -0.180812 22.1266 0.0660447 25.4598C0.312919 28.7932 1.24792 32.0353 2.80956 34.9727C4.3712 37.9103 6.52405 40.4767 9.12641 42.5028C10.7962 43.8289 12.6413 44.9069 14.6068 45.7048C17.3624 46.8586 20.3117 47.4528 23.2898 47.4545C29.437 47.4407 35.3281 44.9372 39.6718 40.4929C44.0154 36.0486 46.4571 30.0263 46.4615 23.7458C46.466 20.5062 45.8129 17.3009 44.5434 14.3323ZM23.2726 4.83128C25.9471 4.831 28.5891 5.42818 31.0137 6.58101C30.4225 6.84201 29.8008 7.02432 29.164 7.12344C27.0688 7.4333 25.1279 8.4271 23.6309 9.95654C22.1339 11.486 21.1611 13.469 20.8578 15.6096C20.7248 16.8101 20.1903 17.9269 19.3447 18.7717C18.4992 19.6165 17.3944 20.1372 16.2166 20.2464C14.1214 20.5562 12.1805 21.5501 10.6835 23.0795C9.18648 24.6089 8.21373 26.5919 7.91045 28.7325C7.80776 29.874 7.33105 30.9468 6.55748 31.777C5.22275 28.8958 4.62316 25.7162 4.81449 22.5345C5.00582 19.3528 5.98186 16.2722 7.65179 13.5794C9.3217 10.8867 11.6312 8.66934 14.3655 7.13366C17.0997 5.59798 20.1697 4.79393 23.2898 4.79629L23.2726 4.83128ZM9.10928 35.9939C9.31479 35.8014 9.52031 35.6264 9.72582 35.4165C11.2495 33.9073 12.2275 31.9151 12.5003 29.7649C12.6109 28.5561 13.1391 27.4272 13.9902 26.5804C14.8094 25.7093 15.9118 25.1741 17.0901 25.0756C19.1853 24.7657 21.1262 23.7719 22.6232 22.2424C24.1202 20.713 25.093 18.73 25.3963 16.5894C25.4704 15.3253 26.0014 14.1342 26.8863 13.2475C27.7256 12.3933 28.8385 11.8776 30.0204 11.7952C31.9452 11.5246 33.7403 10.6504 35.1582 9.29309C36.7727 10.6615 38.1404 12.3077 39.2 14.1573C39.1349 14.2471 39.0603 14.3293 38.9774 14.4023C38.1599 15.281 37.0589 15.828 35.8775 15.942C33.7801 16.2465 31.8363 17.2386 30.3382 18.7689C28.8404 20.2994 27.8693 22.2853 27.5713 24.4282C27.4506 25.6327 26.926 26.7576 26.0865 27.6122C25.2468 28.4669 24.1438 28.9986 22.9644 29.1175C20.863 29.4249 18.9149 30.4168 17.4091 31.9455C15.9036 33.4744 14.9207 35.4586 14.6068 37.6036C14.5146 38.4587 14.2271 39.2798 13.7676 40.0007C12.0104 38.9348 10.4367 37.5812 9.10928 35.9939ZM23.2726 42.7478C21.5348 42.7497 19.8053 42.5023 18.1348 42.0129C18.7063 40.9246 19.0777 39.7384 19.2309 38.5135C19.3509 37.3116 19.8731 36.1888 20.7092 35.3346C21.5453 34.4804 22.6443 33.9469 23.8207 33.8242C25.919 33.5178 27.8638 32.5256 29.3643 30.9958C30.8645 29.4662 31.8398 27.4811 32.144 25.338C32.2641 24.1362 32.7862 23.0134 33.6223 22.1592C34.4584 21.3049 35.5574 20.7714 36.7338 20.6488C38.3129 20.439 39.8179 19.8383 41.1181 18.8991C41.8402 21.695 41.9256 24.6226 41.3682 27.4575C40.8107 30.2924 39.6249 32.9593 37.902 35.2534C36.1791 37.5473 33.9649 39.4077 31.4288 40.6917C28.8929 41.9756 26.1029 42.6491 23.2726 42.6603V42.7478Z" fill="#FF5C00"/>
</svg>
